<svg width="150" height="51" viewBox="0 0 150 51" fill="none" xmlns="http://www.w3.org/2000/svg">
<path fill-rule="evenodd" clip-rule="evenodd" d="M36.3297 2.30972C34.752 1.97338 33.1152 1.79639 31.4371 1.79639C18.5395 1.79639 8.08383 12.252 8.08383 25.1497C8.08383 38.0473 18.5395 48.503 31.4371 48.503C33.1153 48.503 34.7521 48.326 36.3299 47.9896C33.0661 49.4722 29.4308 50.2994 25.5988 50.2994C11.461 50.2994 0 39.0395 0 25.1497C0 11.2599 11.461 0 25.5988 0C29.4307 0 33.066 0.827184 36.3297 2.30972Z" fill="url(#paint0_linear_2_26)"/>
<path d="M46.905 16.1677V33.9366H43.2739V23.7167C43.2739 23.4809 43.278 23.2248 43.2861 22.9484C43.3023 22.672 43.3267 22.3915 43.3592 22.1069L38.6436 31.2414C38.4974 31.5259 38.2984 31.7414 38.0466 31.8878C37.8029 32.0341 37.5226 32.1073 37.2058 32.1073H36.6453C36.3285 32.1073 36.0442 32.0341 35.7924 31.8878C35.5487 31.7414 35.3537 31.5259 35.2075 31.2414L30.4919 22.0825C30.5163 22.3752 30.5366 22.6638 30.5528 22.9484C30.5691 23.2248 30.5772 23.4809 30.5772 23.7167V33.9366H26.9461V16.1677H30.0898C30.2685 16.1677 30.4229 16.1717 30.5528 16.1799C30.6909 16.188 30.8128 16.2124 30.9184 16.253C31.024 16.2937 31.1174 16.3587 31.1986 16.4482C31.288 16.5295 31.3733 16.6474 31.4545 16.8018L36.0239 25.8144C36.1863 26.1233 36.3407 26.4445 36.4869 26.7778C36.6412 27.1112 36.7875 27.4526 36.9256 27.8022C37.0637 27.4445 37.2058 27.0949 37.352 26.7534C37.5064 26.4119 37.6688 26.0867 37.8394 25.7778L42.3966 16.8018C42.4778 16.6474 42.5591 16.5295 42.6403 16.4482C42.7297 16.3587 42.8271 16.2937 42.9327 16.253C43.0383 16.2124 43.1561 16.188 43.2861 16.1799C43.4242 16.1717 43.5826 16.1677 43.7613 16.1677H46.905Z" fill="white"/>
<path d="M54.4831 33.9366H50.3402V16.1677H54.4831V33.9366Z" fill="white"/>
<path d="M73.7974 25.1192C73.7974 26.4119 73.5821 27.599 73.1516 28.6803C72.721 29.7617 72.1158 30.6926 71.336 31.4731C70.5562 32.2536 69.6179 32.8593 68.5213 33.2902C67.4246 33.7212 66.2061 33.9366 64.8658 33.9366H58.1519V16.3018H64.8658C66.2061 16.3018 67.4246 16.5213 68.5213 16.9604C69.6179 17.3913 70.5562 17.997 71.336 18.7775C72.1158 19.5499 72.721 20.4768 73.1516 21.5581C73.5821 22.6394 73.7974 23.8265 73.7974 25.1192ZM70.4343 25.1192C70.4343 24.1517 70.3043 23.2858 70.0444 22.5216C69.7926 21.7492 69.423 21.0987 68.9356 20.5703C68.4563 20.0337 67.8714 19.6231 67.1809 19.3385C66.4986 19.0539 65.7269 18.9117 64.8658 18.9117H61.4418V31.3268H64.8658C65.7269 31.3268 66.4986 31.1845 67.1809 30.8999C67.8714 30.6153 68.4563 30.2088 68.9356 29.6804C69.423 29.1437 69.7926 28.4933 70.0444 27.7291C70.3043 26.9567 70.4343 26.0867 70.4343 25.1192Z" fill="white"/>
<path d="M91.3374 16.375V33.9366H89.8874C89.668 33.9366 89.4812 33.9 89.3269 33.8268C89.1725 33.7455 89.0263 33.6155 88.8882 33.4366L79.2499 21.0459C79.2743 21.2817 79.2905 21.5175 79.2987 21.7532C79.3149 21.9809 79.323 22.1923 79.323 22.3874V33.9366H76.8129V16.375H78.2995C78.4213 16.375 78.5229 16.3831 78.6041 16.3994C78.6935 16.4075 78.7747 16.4278 78.8478 16.4604C78.9209 16.4929 78.99 16.5417 79.055 16.6067C79.1199 16.6717 79.189 16.7531 79.2621 16.8506L88.9126 29.2535C88.8882 29.0015 88.8679 28.7535 88.8516 28.5096C88.8435 28.2657 88.8395 28.038 88.8395 27.8266V16.375H91.3374Z" fill="white"/>
<path d="M98.0288 33.9366H95.6649V16.4604H98.0288V33.9366Z" fill="white"/>
<path d="M116.581 26.1071V32.2414C115.72 32.8512 114.802 33.3187 113.827 33.6439C112.852 33.9691 111.756 34.1317 110.537 34.1317C109.172 34.1317 107.946 33.9244 106.857 33.5098C105.769 33.087 104.839 32.4935 104.067 31.7292C103.303 30.9568 102.714 30.0259 102.3 28.9364C101.894 27.847 101.691 26.6355 101.691 25.3021C101.691 23.9688 101.89 22.7614 102.288 21.6801C102.694 20.5906 103.271 19.6637 104.018 18.8995C104.774 18.1271 105.684 17.5336 106.748 17.1189C107.812 16.6961 109.01 16.4847 110.342 16.4847C111 16.4847 111.605 16.5295 112.158 16.6189C112.718 16.7083 113.238 16.8425 113.717 17.0214C114.197 17.1921 114.644 17.4075 115.058 17.6677C115.472 17.9198 115.87 18.2125 116.252 18.5458L115.911 19.0824C115.797 19.2775 115.626 19.3223 115.399 19.2166C115.277 19.1678 115.102 19.0539 114.875 18.8751C114.648 18.6962 114.335 18.5092 113.937 18.3141C113.539 18.119 113.043 17.9442 112.45 17.7897C111.865 17.6352 111.151 17.558 110.306 17.558C109.185 17.558 108.169 17.7368 107.259 18.0946C106.358 18.4523 105.586 18.9645 104.944 19.6312C104.311 20.2979 103.819 21.1109 103.47 22.0703C103.129 23.0297 102.958 24.107 102.958 25.3021C102.958 26.5136 103.129 27.603 103.47 28.5706C103.819 29.5381 104.319 30.3592 104.969 31.0341C105.627 31.7089 106.423 32.2252 107.357 32.5829C108.291 32.9406 109.343 33.1195 110.513 33.1195C111.025 33.1195 111.496 33.087 111.926 33.0219C112.365 32.9569 112.779 32.8675 113.169 32.7536C113.567 32.6317 113.949 32.4853 114.315 32.3146C114.688 32.1357 115.066 31.9365 115.448 31.717V27.0705H112.146C112.056 27.0705 111.979 27.042 111.914 26.9851C111.857 26.9282 111.829 26.8632 111.829 26.79V26.1071H116.581Z" fill="white"/>
<path d="M133.77 16.7896V33.9366H133.088V25.5095H121.573V33.9366H120.903V16.7896H121.573V24.9729H133.088V16.7896H133.77Z" fill="white"/>
<path d="M150 17.1311H143.591V33.9366H143.298V17.1311H136.84V16.8628H150V17.1311Z" fill="white"/>
<defs>
<linearGradient id="paint0_linear_2_26" x1="5.10164" y1="8.24054" x2="38.4249" y2="32.309" gradientUnits="userSpaceOnUse">
<stop stop-color="#6427A3"/>
<stop offset="1"/>
</linearGradient>
</defs>
</svg>
